 http://www.imdb.com/title/tt0098084/







Format : MPEG-4
Format profile : Base Media / Version 2
Codec ID : mp42
File size : 925 MiB
Duration : 1h 42mn
Overall bit rate mode : Variable
Overall bit rate : 1 258 Kbps

Video
ID : 1
Format : AVC
Format/Info : Advanced Video Codec
Format profile : Main@L3.1
Format settings, CABAC : Yes
Format settings, ReFrames : 4 frames
Codec ID : avc1
Codec ID/Info : Advanced Video Coding
Duration : 1h 42mn
Bit rate mode : Variable
Bit rate : 1 087 Kbps
Width : 1 280 pixels
Height : 720 pixels
Display aspect ratio : 16:9
Frame rate mode : Variable
Frame rate : 23.976 fps
Minimum frame rate : 23.256 fps
Maximum frame rate : 25.000 fps
Color space : YUV
Chroma subsampling : 4:2:0
Bit depth : 8 bits
Scan type : Progressive
Bits/(Pixel*Frame) : 0.049
Stream size : 799 MiB (86%)
Writing library : x264 core 120
Color primaries : BT.709-5, BT.1361, IEC 61966-2-4, SMPTE RP177
Transfer characteristics : BT.709-5, BT.1361
Matrix coefficients : BT.709-5, BT.1361, IEC 61966-2-4 709, SMPTE RP177

Audio
ID : 2
Format : AAC
Format/Info : Advanced Audio Codec
Format profile : LC
Codec ID : 40
Duration : 1h 42mn
Bit rate mode : Variable
Bit rate : 165 Kbps
Maximum bit rate : 278 Kbps
Channel(s) : 2 channels
Channel positions : Front: L R
Sampling rate : 48.0 KHz
Compression mode : Lossy
Stream size : 121 MiB (13%)
Language : English

Text #1
ID : 3
Format : Timed text
Muxing mode : sbtl
Codec ID : tx3g
Duration : 1h 39mn
Bit rate mode : Variable
Bit rate : 224 bps
Stream size : 163 KiB (0%)
Language : English







If you have any requests please leave them at my Suprbay forum, from now on i 

will disregard any requests left on here


  https://forum.suprbay.org/showthread.php?tid=130110






                                ENCODED BY THE HAMBURGLER


Please Comment On Quality And Seed

Sharing Is Caring
